<svg xmlns="http://www.w3.org/2000/svg" width="187" height="240" fill="none" viewBox="0 0 187 240">
<!-- SVG created with Arrow, by QuiverAI (https://quiver.ai) -->
  <path d="m186.7 0.11h-186.7v239.2h186.7v-239.2z" fill="#0E0E0E"/>
  <path d="m170.8 233.7-2.64 2.63c-0.39 0.38-0.92 0.63-1.52 0.63-1.21 0-2.18-1.01-2.18-2.26 0-1.26 1.06-2.44 2.54-2.4 1.36 0.04 2.41 1.22 2.59 1.53l-0.4-0.43c-0.63-0.62-1.34-0.73-2.01-0.73-1.42 0-2.37 1.15-2.37 2.06 0 1.03 0.85 1.9 1.91 1.9 1.25 0 2.14-1.28 2.74-2.02l0.17-0.22c0.66-0.84 1.4-1.93 2.23-1.88v0.09c-0.69 0.18-1.25 0.55-1.06 1.1z" fill="#959595"/>
  <path d="m173.8 233v3.67h-0.6v-4.2h1.53c0.85 0 1.52 0.42 1.52 1.29 0 0.65-0.53 1.14-1.17 1.18l1.41 1.73h-0.75l-1.57-2.06h0.46c0.7 0 1.07-0.35 1.07-0.84 0-0.59-0.41-0.77-1.13-0.77h-0.77z" fill="#959595"/>
  <path d="m178.4 233.5c0.97 0 1.67 0.71 1.67 1.63s-0.71 1.64-1.67 1.64c-0.95 0-1.67-0.72-1.67-1.64s0.72-1.63 1.67-1.63zm0 2.79c0.7 0 1.15-0.54 1.15-1.2 0-0.67-0.45-1.16-1.15-1.16-0.68 0-1.13 0.54-1.13 1.16-0.01 0.66 0.44 1.2 1.13 1.2z" fill="#959595"/>
  <path d="m181.1 236.7h-0.5v-4.41h0.5v2.76l1.37-1.47h0.62l-1.43 1.51 1.61 1.62h-0.72l-1.44-1.53v1.52h-0.01z" fill="#959595"/>
  <path d="m0.44 132.6 13.08-22.53 16.14-0.01c13.58 0 22.1-1.29 25.62-12.49l-1.27 4.05c-5.68 15.53-16.77 27.88-33.92 29.98l-19.65 1z" fill="url(#paint0_linear_206_44708)"/>
  <path d="m66.97 22.34c-13.95 0.4-21.33 1.25-29.82 6.77-9.5 6.13-15.02 14.79-15.02 26.94 0 14.91 11.25 25.66 27.19 30.38l0.95 0.3 4.62-15.67 0.3-0.99 0.59-2.95c-5.66-2.69-8.95-6.49-8.55-11.31 0.65-7.38 7.12-9.88 13.89-11.02l5.84-22.1 0.01-0.35z" fill="#F2F2F2"/>
  <path d="m81.99 3.03-9.91 33.57c10.29-9.51 22.79-14.45 35.75-17.12l5.76-16.45h-31.6z" fill="#F2F2F2"/>
  <path d="m86.69 132.6 5.62-20.59c9.93-1.07 15.74-6.1 15.74-12.12-0.17-5.37-3.83-8.71-9.43-10.48l6.41-20.77c16.25 3.85 29.85 14.23 29.85 31.13 0 13.94-12.7 30.83-38.01 32.46l-10.18 0.37z" fill="#F2F2F2"/>
  <path d="m41.59 152.5 4.62-16.78c12.28-2.05 24.6-6.83 33.67-15.94l-8.49 32.62-29.8 0.1z" fill="#F2F2F2"/>
  <path d="m149.5 22.73h-20.35c-26.23 0-51.93 12.45-64.13 40.78l-9.93 34.23c-6.36 18.63-19.97 33.67-39.92 34.85h11.39c27.49-0.46 52.3-15.1 62.43-39.64l9.93-33.8c4.23-12.67 13.05-29.84 40.81-31.14l9.77-5.28z" fill="#F2F2F2"/>
  <path d="m149.4 22.73-9.33 23.33-20.5 0.07c-11.25 0-17.85 3.96-20.77 13.19h-0.06c3.31-15.2 13.92-31.25 34.86-36.11l15.8-0.48z" fill="url(#paint1_linear_206_44708)"/>
  <defs>
    <linearGradient id="paint0_linear_206_44708" x1="2.505" x2="56.49" y1="117.1" y2="113.6" gradientUnits="userSpaceOnUse">
      <stop stop-color="#FFFDFD" offset="0"/>
      <stop stop-color="#BCBCBD" offset=".8444"/>
    </linearGradient>
    <linearGradient id="paint1_linear_206_44708" x1="101.5" x2="145.2" y1="40.54" y2="37.99" gradientUnits="userSpaceOnUse">
      <stop stop-color="#A7A8AB" offset="0"/>
      <stop stop-color="#BEBEC0" offset=".1082"/>
      <stop stop-color="#DBDBDC" offset=".2742"/>
      <stop stop-color="#F0F0F0" offset=".4461"/>
      <stop stop-color="#FBFBFB" offset=".6263"/>
      <stop stop-color="#FFFDFD" offset=".8288"/>
    </linearGradient>
  </defs>
</svg>