<?xml version="1.0" encoding="UTF-8" standalone="no"?>
<!DOCTYPE svg PUBLIC "-//W3C//DTD SVG 1.1//EN" "http://www.w3.org/Graphics/SVG/1.1/DTD/svg11.dtd">
<svg xmlns="http://www.w3.org/2000/svg" version="1.1" viewBox="0.00 0.00 784.00 1168.00">
<g stroke-width="2.00" fill="none" stroke-linecap="butt">
<path stroke="#828282" vector-effect="non-scaling-stroke" d="
  M 375.73 437.18
  A 0.16 0.15 77.1 0 0 375.98 437.34
  Q 379.18 434.50 382.03 432.29
  Q 421.34 401.78 469.44 386.66
  Q 490.52 380.04 503.67 377.55
  A 0.82 0.79 -86.8 0 0 504.29 376.98
  L 521.38 317.13
  A 0.44 0.44 0.0 0 0 520.96 316.57
  L 410.71 316.57
  A 0.72 0.72 0.0 0 0 410.02 317.09
  L 375.73 437.18"
/>
<path stroke="#828282" vector-effect="non-scaling-stroke" d="
  M 357.41 389.82
  C 351.61 389.90 346.18 389.79 339.88 390.34
  Q 326.18 391.51 315.76 392.54
  C 288.71 395.21 260.44 405.33 237.60 422.08
  C 212.05 440.83 194.23 469.73 192.73 501.51
  Q 191.19 534.01 206.69 559.87
  C 225.26 590.83 258.38 610.01 293.69 617.76
  A 0.45 0.45 0.0 0 0 294.22 617.45
  L 314.55 546.22
  A 0.57 0.57 0.0 0 0 314.25 545.54
  Q 311.28 544.12 310.65 543.85
  Q 298.89 538.66 291.68 529.20
  Q 281.30 515.59 285.72 498.66
  C 289.08 485.82 297.97 477.26 310.00 472.02
  Q 324.20 465.83 336.60 464.47
  A 0.80 0.79 5.0 0 0 337.27 463.91
  L 358.15 390.78
  A 0.75 0.75 0.0 0 0 357.41 389.82"
/>
<path stroke="#676767" vector-effect="non-scaling-stroke" d="
  M 309.91 669.34
  Q 307.40 671.62 305.46 673.98
  Q 301.88 678.35 301.35 678.89
  Q 285.95 694.63 263.49 698.22
  Q 251.33 700.16 240.76 700.30"
/>
<path stroke="#828282" vector-effect="non-scaling-stroke" d="
  M 240.76 700.30
  L 165.50 700.26
  A 0.79 0.78 -77.6 0 0 164.79 700.72
  L 129.76 780.43
  A 0.15 0.15 0.0 0 0 129.90 780.64
  Q 186.00 780.59 187.11 780.60
  Q 213.71 780.84 230.85 779.30
  Q 252.42 777.36 274.09 772.81
  C 345.63 757.81 409.90 711.58 436.33 641.84
  C 440.55 630.71 443.13 618.04 446.53 607.17
  Q 449.38 598.07 454.11 581.13
  C 460.67 557.67 463.33 549.29 467.85 532.16
  Q 469.90 524.41 473.17 513.81
  Q 473.59 512.44 474.52 510.29
  Q 475.38 508.30 475.80 506.72"
/>
<path stroke="#676767" vector-effect="non-scaling-stroke" d="
  M 475.80 506.72
  Q 478.80 503.33 481.26 500.04
  Q 485.03 495.00 486.63 493.31
  Q 499.93 479.31 518.94 474.17
  Q 523.12 473.04 530.47 471.76"
/>
<path stroke="#828282" vector-effect="non-scaling-stroke" d="
  M 530.47 471.76
  Q 540.01 470.40 544.00 470.39
  Q 579.96 470.25 619.90 470.35
  A 1.28 1.28 0.0 0 0 621.09 469.58
  L 655.30 390.26
  A 0.27 0.27 0.0 0 0 655.05 389.88
  Q 618.91 389.77 590.77 389.94
  C 574.53 390.04 558.12 391.20 541.83 393.20
  Q 523.37 395.47 505.46 399.95
  Q 457.07 412.06 417.03 442.57
  C 383.03 468.48 356.54 505.95 345.56 547.68
  C 341.57 562.86 330.02 601.04 318.49 643.47
  Q 315.13 655.85 313.31 661.04
  Q 312.63 662.98 309.91 669.34"
/>
<path stroke="#d9d9d9" vector-effect="non-scaling-stroke" d="
  M 530.47 471.76
  Q 538.30 446.83 544.40 421.61
  A 0.23 0.23 0.0 0 0 544.06 421.36
  C 530.22 429.62 517.42 441.04 506.31 453.31
  Q 496.36 464.30 486.88 481.37
  Q 479.74 494.22 475.80 506.72"
/>
<path stroke="#d9d9d9" vector-effect="non-scaling-stroke" d="
  M 240.76 700.30
  Q 230.14 731.04 221.00 762.14
  A 0.25 0.25 0.0 0 0 221.33 762.44
  C 254.22 749.38 281.79 724.62 299.03 693.96
  Q 304.33 684.54 305.49 682.09
  Q 308.36 676.04 309.91 669.34"
/>
<path stroke="#828282" vector-effect="non-scaling-stroke" d="
  M 428.20 781.25
  Q 441.08 781.04 457.00 780.25
  Q 483.28 778.93 506.24 771.98
  C 530.40 764.66 550.53 753.45 567.82 736.32
  Q 592.69 711.68 598.03 677.56
  C 599.06 671.05 599.13 662.91 598.78 657.25
  C 595.70 607.74 558.67 572.74 513.24 558.52
  Q 508.18 556.94 493.64 553.21
  A 0.51 0.50 -74.5 0 0 493.03 553.56
  L 472.60 625.11
  A 0.60 0.60 0.0 0 0 472.99 625.84
  C 482.76 629.07 492.80 635.49 498.40 644.06
  C 504.45 653.32 506.41 665.31 502.53 675.78
  C 494.46 697.53 470.73 705.78 449.52 706.14
  A 0.48 0.47 6.4 0 0 449.07 706.49
  L 427.85 780.79
  A 0.36 0.36 0.0 0 0 428.20 781.25"
/>
<path stroke="#828282" vector-effect="non-scaling-stroke" d="
  M 408.82 735.33
  C 379.83 760.67 344.89 777.41 308.09 787.83
  Q 303.92 789.01 281.79 793.61
  A 0.80 0.78 1.7 0 0 281.19 794.16
  L 264.65 852.12
  A 0.33 0.33 0.0 0 0 264.97 852.55
  L 375.58 852.55
  A 0.71 0.70 8.2 0 0 376.26 852.05
  L 409.46 735.75
  A 0.40 0.40 0.0 0 0 408.82 735.33"
/>
</g>
<path fill="#101010" d="
  M 784.00 0.00
  L 784.00 1112.68
  L 688.31 1112.99
  A 0.31 0.31 0.0 0 0 688.00 1113.30
  L 687.88 1168.00
  L 0.00 1168.00
  L 0.00 0.85
  Q 0.30 0.33 1.00 0.00
  L 784.00 0.00
  Z
  M 375.73 437.18
  A 0.16 0.15 77.1 0 0 375.98 437.34
  Q 379.18 434.50 382.03 432.29
  Q 421.34 401.78 469.44 386.66
  Q 490.52 380.04 503.67 377.55
  A 0.82 0.79 -86.8 0 0 504.29 376.98
  L 521.38 317.13
  A 0.44 0.44 0.0 0 0 520.96 316.57
  L 410.71 316.57
  A 0.72 0.72 0.0 0 0 410.02 317.09
  L 375.73 437.18
  Z
  M 357.41 389.82
  C 351.61 389.90 346.18 389.79 339.88 390.34
  Q 326.18 391.51 315.76 392.54
  C 288.71 395.21 260.44 405.33 237.60 422.08
  C 212.05 440.83 194.23 469.73 192.73 501.51
  Q 191.19 534.01 206.69 559.87
  C 225.26 590.83 258.38 610.01 293.69 617.76
  A 0.45 0.45 0.0 0 0 294.22 617.45
  L 314.55 546.22
  A 0.57 0.57 0.0 0 0 314.25 545.54
  Q 311.28 544.12 310.65 543.85
  Q 298.89 538.66 291.68 529.20
  Q 281.30 515.59 285.72 498.66
  C 289.08 485.82 297.97 477.26 310.00 472.02
  Q 324.20 465.83 336.60 464.47
  A 0.80 0.79 5.0 0 0 337.27 463.91
  L 358.15 390.78
  A 0.75 0.75 0.0 0 0 357.41 389.82
  Z
  M 309.91 669.34
  Q 307.40 671.62 305.46 673.98
  Q 301.88 678.35 301.35 678.89
  Q 285.95 694.63 263.49 698.22
  Q 251.33 700.16 240.76 700.30
  L 165.50 700.26
  A 0.79 0.78 -77.6 0 0 164.79 700.72
  L 129.76 780.43
  A 0.15 0.15 0.0 0 0 129.90 780.64
  Q 186.00 780.59 187.11 780.60
  Q 213.71 780.84 230.85 779.30
  Q 252.42 777.36 274.09 772.81
  C 345.63 757.81 409.90 711.58 436.33 641.84
  C 440.55 630.71 443.13 618.04 446.53 607.17
  Q 449.38 598.07 454.11 581.13
  C 460.67 557.67 463.33 549.29 467.85 532.16
  Q 469.90 524.41 473.17 513.81
  Q 473.59 512.44 474.52 510.29
  Q 475.38 508.30 475.80 506.72
  Q 478.80 503.33 481.26 500.04
  Q 485.03 495.00 486.63 493.31
  Q 499.93 479.31 518.94 474.17
  Q 523.12 473.04 530.47 471.76
  Q 540.01 470.40 544.00 470.39
  Q 579.96 470.25 619.90 470.35
  A 1.28 1.28 0.0 0 0 621.09 469.58
  L 655.30 390.26
  A 0.27 0.27 0.0 0 0 655.05 389.88
  Q 618.91 389.77 590.77 389.94
  C 574.53 390.04 558.12 391.20 541.83 393.20
  Q 523.37 395.47 505.46 399.95
  Q 457.07 412.06 417.03 442.57
  C 383.03 468.48 356.54 505.95 345.56 547.68
  C 341.57 562.86 330.02 601.04 318.49 643.47
  Q 315.13 655.85 313.31 661.04
  Q 312.63 662.98 309.91 669.34
  Z
  M 428.20 781.25
  Q 441.08 781.04 457.00 780.25
  Q 483.28 778.93 506.24 771.98
  C 530.40 764.66 550.53 753.45 567.82 736.32
  Q 592.69 711.68 598.03 677.56
  C 599.06 671.05 599.13 662.91 598.78 657.25
  C 595.70 607.74 558.67 572.74 513.24 558.52
  Q 508.18 556.94 493.64 553.21
  A 0.51 0.50 -74.5 0 0 493.03 553.56
  L 472.60 625.11
  A 0.60 0.60 0.0 0 0 472.99 625.84
  C 482.76 629.07 492.80 635.49 498.40 644.06
  C 504.45 653.32 506.41 665.31 502.53 675.78
  C 494.46 697.53 470.73 705.78 449.52 706.14
  A 0.48 0.47 6.4 0 0 449.07 706.49
  L 427.85 780.79
  A 0.36 0.36 0.0 0 0 428.20 781.25
  Z
  M 408.82 735.33
  C 379.83 760.67 344.89 777.41 308.09 787.83
  Q 303.92 789.01 281.79 793.61
  A 0.80 0.78 1.7 0 0 281.19 794.16
  L 264.65 852.12
  A 0.33 0.33 0.0 0 0 264.97 852.55
  L 375.58 852.55
  A 0.71 0.70 8.2 0 0 376.26 852.05
  L 409.46 735.75
  A 0.40 0.40 0.0 0 0 408.82 735.33
  Z"
/>
<path fill="#f4f4f4" d="
  M 375.73 437.18
  L 410.02 317.09
  A 0.72 0.72 0.0 0 1 410.71 316.57
  L 520.96 316.57
  A 0.44 0.44 0.0 0 1 521.38 317.13
  L 504.29 376.98
  A 0.82 0.79 -86.8 0 1 503.67 377.55
  Q 490.52 380.04 469.44 386.66
  Q 421.34 401.78 382.03 432.29
  Q 379.18 434.50 375.98 437.34
  A 0.16 0.15 77.1 0 1 375.73 437.18
  Z"
/>
<path fill="#f4f4f4" d="
  M 357.41 389.82
  A 0.75 0.75 0.0 0 1 358.15 390.78
  L 337.27 463.91
  A 0.80 0.79 5.0 0 1 336.60 464.47
  Q 324.20 465.83 310.00 472.02
  C 297.97 477.26 289.08 485.82 285.72 498.66
  Q 281.30 515.59 291.68 529.20
  Q 298.89 538.66 310.65 543.85
  Q 311.28 544.12 314.25 545.54
  A 0.57 0.57 0.0 0 1 314.55 546.22
  L 294.22 617.45
  A 0.45 0.45 0.0 0 1 293.69 617.76
  C 258.38 610.01 225.26 590.83 206.69 559.87
  Q 191.19 534.01 192.73 501.51
  C 194.23 469.73 212.05 440.83 237.60 422.08
  C 260.44 405.33 288.71 395.21 315.76 392.54
  Q 326.18 391.51 339.88 390.34
  C 346.18 389.79 351.61 389.90 357.41 389.82
  Z"
/>
<path fill="#f4f4f4" d="
  M 530.47 471.76
  Q 538.30 446.83 544.40 421.61
  A 0.23 0.23 0.0 0 0 544.06 421.36
  C 530.22 429.62 517.42 441.04 506.31 453.31
  Q 496.36 464.30 486.88 481.37
  Q 479.74 494.22 475.80 506.72
  Q 475.38 508.30 474.52 510.29
  Q 473.59 512.44 473.17 513.81
  Q 469.90 524.41 467.85 532.16
  C 463.33 549.29 460.67 557.67 454.11 581.13
  Q 449.38 598.07 446.53 607.17
  C 443.13 618.04 440.55 630.71 436.33 641.84
  C 409.90 711.58 345.63 757.81 274.09 772.81
  Q 252.42 777.36 230.85 779.30
  Q 213.71 780.84 187.11 780.60
  Q 186.00 780.59 129.90 780.64
  A 0.15 0.15 0.0 0 1 129.76 780.43
  L 164.79 700.72
  A 0.79 0.78 -77.6 0 1 165.50 700.26
  L 240.76 700.30
  Q 230.14 731.04 221.00 762.14
  A 0.25 0.25 0.0 0 0 221.33 762.44
  C 254.22 749.38 281.79 724.62 299.03 693.96
  Q 304.33 684.54 305.49 682.09
  Q 308.36 676.04 309.91 669.34
  Q 312.63 662.98 313.31 661.04
  Q 315.13 655.85 318.49 643.47
  C 330.02 601.04 341.57 562.86 345.56 547.68
  C 356.54 505.95 383.03 468.48 417.03 442.57
  Q 457.07 412.06 505.46 399.95
  Q 523.37 395.47 541.83 393.20
  C 558.12 391.20 574.53 390.04 590.77 389.94
  Q 618.91 389.77 655.05 389.88
  A 0.27 0.27 0.0 0 1 655.30 390.26
  L 621.09 469.58
  A 1.28 1.28 0.0 0 1 619.90 470.35
  Q 579.96 470.25 544.00 470.39
  Q 540.01 470.40 530.47 471.76
  Z"
/>
<path fill="#bdbdbd" d="
  M 530.47 471.76
  Q 523.12 473.04 518.94 474.17
  Q 499.93 479.31 486.63 493.31
  Q 485.03 495.00 481.26 500.04
  Q 478.80 503.33 475.80 506.72
  Q 479.74 494.22 486.88 481.37
  Q 496.36 464.30 506.31 453.31
  C 517.42 441.04 530.22 429.62 544.06 421.36
  A 0.23 0.23 0.0 0 1 544.40 421.61
  Q 538.30 446.83 530.47 471.76
  Z"
/>
<path fill="#f4f4f4" d="
  M 428.20 781.25
  A 0.36 0.36 0.0 0 1 427.85 780.79
  L 449.07 706.49
  A 0.48 0.47 6.4 0 1 449.52 706.14
  C 470.73 705.78 494.46 697.53 502.53 675.78
  C 506.41 665.31 504.45 653.32 498.40 644.06
  C 492.80 635.49 482.76 629.07 472.99 625.84
  A 0.60 0.60 0.0 0 1 472.60 625.11
  L 493.03 553.56
  A 0.51 0.50 -74.5 0 1 493.64 553.21
  Q 508.18 556.94 513.24 558.52
  C 558.67 572.74 595.70 607.74 598.78 657.25
  C 599.13 662.91 599.06 671.05 598.03 677.56
  Q 592.69 711.68 567.82 736.32
  C 550.53 753.45 530.40 764.66 506.24 771.98
  Q 483.28 778.93 457.00 780.25
  Q 441.08 781.04 428.20 781.25
  Z"
/>
<path fill="#bdbdbd" d="
  M 309.91 669.34
  Q 308.36 676.04 305.49 682.09
  Q 304.33 684.54 299.03 693.96
  C 281.79 724.62 254.22 749.38 221.33 762.44
  A 0.25 0.25 0.0 0 1 221.00 762.14
  Q 230.14 731.04 240.76 700.30
  Q 251.33 700.16 263.49 698.22
  Q 285.95 694.63 301.35 678.89
  Q 301.88 678.35 305.46 673.98
  Q 307.40 671.62 309.91 669.34
  Z"
/>
<path fill="#f4f4f4" d="
  M 408.82 735.33
  A 0.40 0.40 0.0 0 1 409.46 735.75
  L 376.26 852.05
  A 0.71 0.70 8.2 0 1 375.58 852.55
  L 264.97 852.55
  A 0.33 0.33 0.0 0 1 264.65 852.12
  L 281.19 794.16
  A 0.80 0.78 1.7 0 1 281.79 793.61
  Q 303.92 789.01 308.09 787.83
  C 344.89 777.41 379.83 760.67 408.82 735.33
  Z"
/>
</svg>
